# xmcd
#
# Track frame offsets: 
#        150
#        10100
#        20944
#        37728
#        58764
#        75307
#        99506
#        112571
#        123377
#        139029
#        151234
#        162542
#        172431
#
# Disc length: 2391 seconds
#
# Revision: 2
# Processed by: cddbd v1.5.2PL0 Copyright (c) Steve Scherf et al.
# Submitted via: ExactAudioCopy v0.95b4
#
DISCID=9d09550d
DTITLE=Ocean Colour Scene - On The Leyline
DYEAR=2007
DGENRE=Rock
TTITLE0=I Told You So
TTITLE1=On The Leyline, Waiting
TTITLE2=For Dancers Only
TTITLE3=Man In The Middle
TTITLE4=I Just Got Over You
TTITLE5=Go To Sea
TTITLE6=These Days I'm Tired
TTITLE7=You'll Never Find Me
TTITLE8=Don't Get Me
TTITLE9=Loneliest Girl In The Whole Wide World
TTITLE10=Mr Brown
TTITLE11=Two Lovers
TTITLE12=Daylight
EXTD=
EXTT0=
EXTT1=
EXTT2=
EXTT3=
EXTT4=
EXTT5=
EXTT6=
EXTT7=
EXTT8=
EXTT9=
EXTT10=
EXTT11=
EXTT12=
PLAYORDER=
